# xmcd
#
# Track frame offsets:
#	150
#	16838
#	32262
#	46211
#	61570
#	78264
#	94900
#	110957
#	127521
#	140758
#	154637
#	167892
#	185364
#	200506
#	216303
#	231311
#	247059
#	264581
#	280867
#	297588
#	310808
#
# Disc length: 4355 seconds
#
# Revision: 1
# Processed by: cddbd v1.5PL3 Copyright (c) Steve Scherf et al.
# Submitted via: audiograbber 1.83.01
#
DISCID=2a110115
DTITLE=Various Artist - Olders.
DYEAR=1900
DGENRE=
TTITLE0=Mark Ashley. - When I See The Angels Cry.
TTITLE1=2 Elvissa. - Fire In The Sky.
TTITLE2=One Track Mind. - I Like You.
TTITLE3=Benny Benassi. - Satisfaction.
TTITLE4=The Rasmus. - In The Shadows.
TTITLE5=Busta Rhayams and Mariah Carey. - I Know What U Want. (Rmx)
TTITLE6=One-T and Cool-T. - The Magic Key.
TTITLE7=Breatney Spears and Madonna. - Me Against The Music.
TTITLE8=New Tone. - Waiting For Your Love.
TTITLE9=E-Rotic. - Sexual Heading.
TTITLE10=Despina Vandi. - Gia.
TTITLE11=Eddy Wata. - Jam.
TTITLE12=Sophie-Ellis Baxtor. - Mixed Up World.
TTITLE13=S.O.A.P. - Mr. Dj.
TTITLE14=Sting. - Send Your Love.
TTITLE15=Pink. - Just Like A Pill. (Jacknite Lee Mix Edit)
TTITLE16=Beyonce Feat. Sean Paul. - Baby Boy.
TTITLE17=Atomic Kitten. - If You Come To Me.
TTITLE18=No Doubt. - It's My Life.
TTITLE19=Nelly Furtado. - Powerless.
TTITLE20=Sean Paul. - Get Busy.
EXTD=
EXTT0=
EXTT1=
EXTT2=
EXTT3=
EXTT4=
EXTT5=
EXTT6=
EXTT7=
EXTT8=
EXTT9=
EXTT10=
EXTT11=
EXTT12=
EXTT13=
EXTT14=
EXTT15=
EXTT16=
EXTT17=
EXTT18=
EXTT19=
EXTT20=
PLAYORDER=
